<svg width="246" height="48" viewBox="0 0 246 48" fill="none" xmlns="http://www.w3.org/2000/svg">
<path d="M18.324 23.048V35H14.544V23.552C14.544 22.952 14.436 22.364 14.22 21.788C14.004 21.212 13.584 20.732 12.96 20.348C12.36 19.964 11.46 19.772 10.26 19.772C9.588 19.772 8.928 19.832 8.28 19.952C7.656 20.072 7.044 20.24 6.444 20.456V35H2.664V18.404C3.72 17.852 5.016 17.408 6.552 17.072C8.112 16.712 9.612 16.532 11.052 16.532C13.404 16.532 15.156 16.988 16.308 17.9C17.268 17.444 18.264 17.108 19.296 16.892C20.328 16.652 21.348 16.532 22.356 16.532C24.9 16.532 26.748 17.072 27.9 18.152C29.052 19.208 29.628 20.84 29.628 23.048V35H25.848V23.552C25.848 22.952 25.74 22.364 25.524 21.788C25.308 21.212 24.888 20.732 24.264 20.348C23.664 19.964 22.764 19.772 21.564 19.772C20.316 19.772 19.152 20.096 18.072 20.744C18.24 21.416 18.324 22.184 18.324 23.048ZM42.7126 35.54C39.7846 35.54 37.6006 34.712 36.1606 33.056C34.7446 31.4 34.0366 29.036 34.0366 25.964C34.0366 22.724 34.7686 20.336 36.2326 18.8C37.7206 17.264 39.8686 16.496 42.6766 16.496C45.6286 16.496 47.8246 17.324 49.2646 18.98C50.7046 20.612 51.4246 22.94 51.4246 25.964C51.4246 29.012 50.6686 31.376 49.1566 33.056C47.6446 34.712 45.4966 35.54 42.7126 35.54ZM42.6766 32.336C44.5006 32.336 45.7846 31.748 46.5286 30.572C47.2726 29.396 47.6446 27.86 47.6446 25.964C47.6446 23.9 47.2606 22.34 46.4926 21.284C45.7246 20.204 44.4526 19.664 42.6766 19.664C40.8526 19.664 39.5806 20.228 38.8606 21.356C38.1406 22.46 37.7806 23.996 37.7806 25.964C37.7806 27.956 38.1526 29.516 38.8966 30.644C39.6406 31.772 40.9006 32.336 42.6766 32.336ZM60.6378 35L53.0418 16.928H57.1098L62.7978 30.86L68.1258 16.928H72.0498L64.4178 35H60.6378ZM75.789 14.048V10.628H79.821V14.048H75.789ZM75.897 35V17.036H79.677L79.713 35H75.897ZM92.9166 35.54C90.2526 35.54 88.1286 34.736 86.5446 33.128C84.9846 31.496 84.2046 29.144 84.2046 26.072C84.2046 22.928 84.9366 20.552 86.4006 18.944C87.8886 17.312 89.9526 16.496 92.5926 16.496C94.5366 16.496 96.1086 16.928 97.3086 17.792C98.5086 18.656 99.3726 19.868 99.9006 21.428C100.453 22.964 100.717 24.764 100.693 26.828H87.9846C88.1046 28.604 88.6326 29.96 89.5686 30.896C90.5046 31.808 91.8246 32.264 93.5286 32.264C94.7286 32.264 95.8206 32.12 96.8046 31.832C97.8126 31.52 98.6646 31.172 99.3606 30.788V34.316C98.4966 34.7 97.5366 35 96.4806 35.216C95.4246 35.432 94.2366 35.54 92.9166 35.54ZM92.4846 19.592C91.2606 19.592 90.2766 19.916 89.5326 20.564C88.7886 21.188 88.3086 22.34 88.0926 24.02H96.8406C96.6966 22.484 96.2646 21.368 95.5446 20.672C94.8486 19.952 93.8286 19.592 92.4846 19.592Z" fill="#EB5E28"/>
<path d="M113.283 35.504C112.731 35.504 112.023 35.42 111.159 35.252C110.319 35.108 109.527 34.868 108.783 34.532V42.236H105.039V20.42C105.039 19.676 105.267 19.052 105.723 18.548C106.203 18.044 106.827 17.648 107.595 17.36C108.363 17.048 109.203 16.832 110.115 16.712C111.051 16.568 111.987 16.496 112.923 16.496C114.507 16.496 115.959 16.796 117.279 17.396C118.599 17.996 119.655 19.016 120.447 20.456C121.239 21.872 121.635 23.816 121.635 26.288C121.635 29.096 120.903 31.34 119.439 33.02C117.999 34.676 115.947 35.504 113.283 35.504ZM112.599 32.3C114.327 32.3 115.623 31.784 116.487 30.752C117.351 29.696 117.783 28.184 117.783 26.216C117.783 25.016 117.639 23.924 117.351 22.94C117.087 21.956 116.595 21.188 115.875 20.636C115.155 20.06 114.123 19.772 112.779 19.772C111.579 19.772 110.607 19.904 109.863 20.168C109.143 20.432 108.783 20.792 108.783 21.248V31.256C109.383 31.616 110.007 31.88 110.655 32.048C111.327 32.216 111.975 32.3 112.599 32.3ZM132.579 35.54C131.355 35.54 130.179 35.372 129.051 35.036C127.923 34.7 126.999 34.112 126.279 33.272C125.559 32.432 125.199 31.256 125.199 29.744C125.199 27.752 125.775 26.276 126.927 25.316C128.103 24.332 129.711 23.84 131.751 23.84C132.927 23.84 133.959 23.96 134.847 24.2C135.759 24.44 136.527 24.74 137.151 25.1V23.408C137.151 22.136 136.755 21.212 135.963 20.636C135.195 20.036 134.115 19.736 132.723 19.736C131.691 19.736 130.635 19.904 129.555 20.24C128.499 20.552 127.623 20.996 126.927 21.572V18.044C127.599 17.612 128.571 17.252 129.843 16.964C131.115 16.676 132.447 16.532 133.839 16.532C134.967 16.532 136.071 16.712 137.151 17.072C138.255 17.432 139.155 18.056 139.851 18.944C140.571 19.832 140.931 21.032 140.931 22.544L140.895 31.184C140.895 32.36 140.523 33.26 139.779 33.884C139.059 34.508 138.075 34.94 136.827 35.18C135.579 35.42 134.163 35.54 132.579 35.54ZM128.943 29.564C128.943 30.284 129.147 30.872 129.555 31.328C129.963 31.76 130.467 32.084 131.067 32.3C131.691 32.492 132.339 32.588 133.011 32.588C134.403 32.588 135.435 32.492 136.107 32.3C136.803 32.084 137.151 31.64 137.151 30.968V27.476C136.599 27.236 135.975 27.044 135.279 26.9C134.607 26.756 133.887 26.684 133.119 26.684C130.335 26.684 128.943 27.644 128.943 29.564ZM146.242 35V18.584C146.554 18.392 147.13 18.14 147.97 17.828C148.81 17.492 149.794 17.192 150.922 16.928C152.074 16.664 153.25 16.532 154.45 16.532C155.05 16.532 155.542 16.58 155.926 16.676C156.31 16.772 156.634 16.88 156.898 17V20.024C155.818 19.856 154.642 19.808 153.37 19.88C152.098 19.952 150.982 20.072 150.022 20.24V35H146.242ZM167.173 35.54C165.949 35.54 164.773 35.372 163.645 35.036C162.517 34.7 161.593 34.112 160.873 33.272C160.153 32.432 159.793 31.256 159.793 29.744C159.793 27.752 160.369 26.276 161.521 25.316C162.697 24.332 164.305 23.84 166.345 23.84C167.521 23.84 168.553 23.96 169.441 24.2C170.353 24.44 171.121 24.74 171.745 25.1V23.408C171.745 22.136 171.349 21.212 170.557 20.636C169.789 20.036 168.709 19.736 167.317 19.736C166.285 19.736 165.229 19.904 164.149 20.24C163.093 20.552 162.217 20.996 161.521 21.572V18.044C162.193 17.612 163.165 17.252 164.437 16.964C165.709 16.676 167.041 16.532 168.433 16.532C169.561 16.532 170.665 16.712 171.745 17.072C172.849 17.432 173.749 18.056 174.445 18.944C175.165 19.832 175.525 21.032 175.525 22.544L175.489 31.184C175.489 32.36 175.117 33.26 174.373 33.884C173.653 34.508 172.669 34.94 171.421 35.18C170.173 35.42 168.757 35.54 167.173 35.54ZM163.537 29.564C163.537 30.284 163.741 30.872 164.149 31.328C164.557 31.76 165.061 32.084 165.661 32.3C166.285 32.492 166.933 32.588 167.605 32.588C168.997 32.588 170.029 32.492 170.701 32.3C171.397 32.084 171.745 31.64 171.745 30.968V27.476C171.193 27.236 170.569 27.044 169.873 26.9C169.201 26.756 168.481 26.684 167.713 26.684C164.929 26.684 163.537 27.644 163.537 29.564ZM188.828 35.54C187.724 35.54 186.644 35.396 185.588 35.108C184.532 34.844 183.572 34.364 182.708 33.668C181.868 32.948 181.184 31.952 180.656 30.68C180.152 29.408 179.9 27.764 179.9 25.748C179.9 22.916 180.596 20.672 181.988 19.016C183.38 17.336 185.492 16.496 188.324 16.496C188.876 16.496 189.584 16.58 190.448 16.748C191.312 16.916 192.116 17.168 192.86 17.504V9.368H196.604V31.184C196.604 31.952 196.364 32.612 195.884 33.164C195.428 33.716 194.816 34.172 194.048 34.532C193.28 34.868 192.44 35.12 191.528 35.288C190.616 35.456 189.716 35.54 188.828 35.54ZM188.936 32.264C190.016 32.264 190.94 32.132 191.708 31.868C192.476 31.604 192.86 31.256 192.86 30.824V20.78C192.236 20.42 191.564 20.156 190.844 19.988C190.148 19.82 189.488 19.736 188.864 19.736C187.088 19.736 185.792 20.264 184.976 21.32C184.16 22.352 183.752 23.852 183.752 25.82C183.752 27.02 183.896 28.112 184.184 29.096C184.472 30.056 184.988 30.824 185.732 31.4C186.5 31.976 187.568 32.264 188.936 32.264ZM201.93 14.048V10.628H205.962V14.048H201.93ZM202.038 35V17.036H205.818L205.854 35H202.038ZM216.501 35.54C215.205 35.54 214.101 35.408 213.189 35.144C212.301 34.88 211.425 34.532 210.561 34.1V30.536C211.497 31.112 212.409 31.592 213.297 31.976C214.209 32.336 215.277 32.516 216.501 32.516C217.557 32.516 218.373 32.312 218.949 31.904C219.525 31.472 219.813 30.92 219.813 30.248C219.813 29.696 219.621 29.264 219.237 28.952C218.877 28.616 218.409 28.352 217.833 28.16C217.257 27.944 216.657 27.728 216.033 27.512C215.169 27.296 214.305 27.008 213.441 26.648C212.601 26.264 211.905 25.724 211.353 25.028C210.801 24.332 210.525 23.372 210.525 22.148C210.525 20.804 210.873 19.724 211.569 18.908C212.265 18.092 213.129 17.504 214.161 17.144C215.217 16.76 216.261 16.568 217.293 16.568C218.565 16.592 219.597 16.748 220.389 17.036C221.205 17.324 222.009 17.66 222.801 18.044V21.32C221.913 20.864 221.085 20.468 220.317 20.132C219.573 19.796 218.697 19.628 217.689 19.628C216.729 19.628 215.937 19.808 215.313 20.168C214.713 20.504 214.413 21.008 214.413 21.68C214.413 22.256 214.581 22.712 214.917 23.048C215.277 23.384 215.733 23.66 216.285 23.876C216.861 24.068 217.473 24.248 218.121 24.416C218.721 24.584 219.345 24.788 219.993 25.028C220.641 25.244 221.241 25.544 221.793 25.928C222.345 26.288 222.789 26.78 223.125 27.404C223.485 28.028 223.665 28.832 223.665 29.816C223.665 31.184 223.305 32.288 222.585 33.128C221.889 33.968 221.001 34.58 219.921 34.964C218.841 35.348 217.701 35.54 216.501 35.54ZM235.862 35.54C233.198 35.54 231.074 34.736 229.49 33.128C227.93 31.496 227.15 29.144 227.15 26.072C227.15 22.928 227.882 20.552 229.346 18.944C230.834 17.312 232.898 16.496 235.538 16.496C237.482 16.496 239.054 16.928 240.254 17.792C241.454 18.656 242.318 19.868 242.846 21.428C243.398 22.964 243.662 24.764 243.638 26.828H230.93C231.05 28.604 231.578 29.96 232.514 30.896C233.45 31.808 234.77 32.264 236.474 32.264C237.674 32.264 238.766 32.12 239.75 31.832C240.758 31.52 241.61 31.172 242.306 30.788V34.316C241.442 34.7 240.482 35 239.426 35.216C238.37 35.432 237.182 35.54 235.862 35.54ZM235.43 19.592C234.206 19.592 233.222 19.916 232.478 20.564C231.734 21.188 231.254 22.34 231.038 24.02H239.786C239.642 22.484 239.21 21.368 238.49 20.672C237.794 19.952 236.774 19.592 235.43 19.592Z" fill="#CCC5B9"/>
</svg>
